{
    "asset" : {
        "generator" : "Khronos glTF Blender I/O v1.7.33",
        "version" : "2.0"
    },
    "scene" : 0,
    "scenes" : [
        {
            "name" : "Scene",
            "nodes" : [
                0
            ]
        }
    ],
    "nodes" : [
        {
            "mesh" : 0,
            "name" : "CLAW_Low.001"
        }
    ],
    "materials" : [
        {
            "name" : "24 - Default",
            "normalTexture" : {
                "index" : 0
            },
            "pbrMetallicRoughness" : {
                "baseColorTexture" : {
                    "index" : 1
                },
                "metallicFactor" : 0.12727272510528564,
                "roughnessFactor" : 0.5909091234207153
            }
        }
    ],
    "meshes" : [
        {
            "name" : "CLAW_Low",
            "primitives" : [
                {
                    "attributes" : {
                        "POSITION" : 0,
                        "NORMAL" : 1,
                        "TEXCOORD_0" : 2
                    },
                    "indices" : 3,
                    "material" : 0
                }
            ]
        }
    ],
    "textures" : [
        {
            "sampler" : 0,
            "source" : 0
        },
        {
            "sampler" : 0,
            "source" : 1
        }
    ],
    "images" : [
        {
            "bufferView" : 4,
            "mimeType" : "image/jpeg",
            "name" : "24 - Default_normal"
        },
        {
            "bufferView" : 5,
            "mimeType" : "image/jpeg",
            "name" : "24 - Default_baseColor"
        }
    ],
    "accessors" : [
        {
            "bufferView" : 0,
            "componentType" : 5126,
            "count" : 10205,
            "max" : [
                0.03184095770120621,
                0.1600179672241211,
                0.03372230380773544
            ],
            "min" : [
                -0.017691077664494514,
                0.002085510641336441,
                -0.016464369371533394
            ],
            "type" : "VEC3"
        },
        {
            "bufferView" : 1,
            "componentType" : 5126,
            "count" : 10205,
            "type" : "VEC3"
        },
        {
            "bufferView" : 2,
            "componentType" : 5126,
            "count" : 10205,
            "type" : "VEC2"
        },
        {
            "bufferView" : 3,
            "componentType" : 5123,
            "count" : 58314,
            "type" : "SCALAR"
        }
    ],
    "bufferViews" : [
        {
            "buffer" : 0,
            "byteLength" : 122460,
            "byteOffset" : 0
        },
        {
            "buffer" : 0,
            "byteLength" : 122460,
            "byteOffset" : 122460
        },
        {
            "buffer" : 0,
            "byteLength" : 81640,
            "byteOffset" : 244920
        },
        {
            "buffer" : 0,
            "byteLength" : 116628,
            "byteOffset" : 326560
        },
        {
            "buffer" : 0,
            "byteLength" : 182048,
            "byteOffset" : 443188
        },
        {
            "buffer" : 0,
            "byteLength" : 712989,
            "byteOffset" : 625236
        }
    ],
    "samplers" : [
        {
            "magFilter" : 9729,
            "minFilter" : 9987
        }
    ],
    "buffers" : [
        {
            "byteLength" : 1338228,
            "uri" : "data:application/octet-stream;base64,"
        }
    ]
}
