{
    "asset" : {
        "generator" : "Khronos glTF Blender I/O v1.7.33",
        "version" : "2.0"
    },
    "scene" : 0,
    "scenes" : [
        {
            "name" : "Scene",
            "nodes" : [
                0
            ]
        }
    ],
    "nodes" : [
        {
            "mesh" : 0,
            "name" : "Group47060.001"
        }
    ],
    "materials" : [
        {
            "name" : "Material__61",
            "normalTexture" : {
                "index" : 0
            },
            "occlusionTexture" : {
                "index" : 1
            },
            "pbrMetallicRoughness" : {
                "baseColorTexture" : {
                    "index" : 2
                },
                "metallicRoughnessTexture" : {
                    "index" : 1
                }
            }
        }
    ],
    "meshes" : [
        {
            "name" : "Group47060",
            "primitives" : [
                {
                    "attributes" : {
                        "POSITION" : 0,
                        "NORMAL" : 1,
                        "TEXCOORD_0" : 2
                    },
                    "indices" : 3,
                    "material" : 0
                }
            ]
        }
    ],
    "textures" : [
        {
            "sampler" : 0,
            "source" : 0
        },
        {
            "sampler" : 0,
            "source" : 1
        },
        {
            "sampler" : 0,
            "source" : 2
        }
    ],
    "images" : [
        {
            "bufferView" : 4,
            "mimeType" : "image/jpeg",
            "name" : "low2_Material__61_Normal"
        },
        {
            "bufferView" : 5,
            "mimeType" : "image/jpeg",
            "name" : "low2_Material__61_OcclusionRoughnessMetallic"
        },
        {
            "bufferView" : 6,
            "mimeType" : "image/jpeg",
            "name" : "low2_Material__61_BaseColor"
        }
    ],
    "accessors" : [
        {
            "bufferView" : 0,
            "componentType" : 5126,
            "count" : 39970,
            "max" : [
                0.2980841398239136,
                0.17232072353363037,
                0.024127135053277016
            ],
            "min" : [
                -0.17089931666851044,
                0.002973978640511632,
                -0.024127120152115822
            ],
            "type" : "VEC3"
        },
        {
            "bufferView" : 1,
            "componentType" : 5126,
            "count" : 39970,
            "type" : "VEC3"
        },
        {
            "bufferView" : 2,
            "componentType" : 5126,
            "count" : 39970,
            "type" : "VEC2"
        },
        {
            "bufferView" : 3,
            "componentType" : 5123,
            "count" : 231894,
            "type" : "SCALAR"
        }
    ],
    "bufferViews" : [
        {
            "buffer" : 0,
            "byteLength" : 479640,
            "byteOffset" : 0
        },
        {
            "buffer" : 0,
            "byteLength" : 479640,
            "byteOffset" : 479640
        },
        {
            "buffer" : 0,
            "byteLength" : 319760,
            "byteOffset" : 959280
        },
        {
            "buffer" : 0,
            "byteLength" : 463788,
            "byteOffset" : 1279040
        },
        {
            "buffer" : 0,
            "byteLength" : 44985,
            "byteOffset" : 1742828
        },
        {
            "buffer" : 0,
            "byteLength" : 461927,
            "byteOffset" : 1787816
        },
        {
            "buffer" : 0,
            "byteLength" : 313467,
            "byteOffset" : 2249744
        }
    ],
    "samplers" : [
        {
            "magFilter" : 9729,
            "minFilter" : 9987
        }
    ],
    "buffers" : [
        {
            "byteLength" : 2563212,
            "uri" : "data:application/octet-stream;base64,"
        }
    ]
}
