{
    "asset" : {
        "generator" : "Khronos glTF Blender I/O v1.7.33",
        "version" : "2.0"
    },
    "scene" : 0,
    "scenes" : [
        {
            "name" : "Scene",
            "nodes" : [
                0
            ]
        }
    ],
    "nodes" : [
        {
            "mesh" : 0,
            "name" : "PISTOL_02.001"
        }
    ],
    "materials" : [
        {
            "name" : "Material__25",
            "normalTexture" : {
                "index" : 0,
                "scale" : 0.800000011920929
            },
            "occlusionTexture" : {
                "index" : 1
            },
            "pbrMetallicRoughness" : {
                "baseColorTexture" : {
                    "index" : 2
                },
                "metallicRoughnessTexture" : {
                    "index" : 1
                }
            }
        }
    ],
    "meshes" : [
        {
            "name" : "PISTOL_02",
            "primitives" : [
                {
                    "attributes" : {
                        "POSITION" : 0,
                        "NORMAL" : 1,
                        "TEXCOORD_0" : 2
                    },
                    "indices" : 3,
                    "material" : 0
                }
            ]
        }
    ],
    "textures" : [
        {
            "sampler" : 0,
            "source" : 0
        },
        {
            "sampler" : 0,
            "source" : 1
        },
        {
            "sampler" : 0,
            "source" : 2
        }
    ],
    "images" : [
        {
            "bufferView" : 4,
            "mimeType" : "image/jpeg",
            "name" : "PISTOL_02_Material__25_Normal"
        },
        {
            "bufferView" : 5,
            "mimeType" : "image/jpeg",
            "name" : "PISTOL_02_Material__25_OcclusionRoughnessMetallic"
        },
        {
            "bufferView" : 6,
            "mimeType" : "image/jpeg",
            "name" : "PISTOL_02_Material__25_BaseColor"
        }
    ],
    "accessors" : [
        {
            "bufferView" : 0,
            "componentType" : 5126,
            "count" : 23245,
            "max" : [
                0.2607008218765259,
                0.23287048935890198,
                0.060844916850328445
            ],
            "min" : [
                -0.2680339217185974,
                -0.0020542703568935394,
                -0.02912825159728527
            ],
            "type" : "VEC3"
        },
        {
            "bufferView" : 1,
            "componentType" : 5126,
            "count" : 23245,
            "type" : "VEC3"
        },
        {
            "bufferView" : 2,
            "componentType" : 5126,
            "count" : 23245,
            "type" : "VEC2"
        },
        {
            "bufferView" : 3,
            "componentType" : 5123,
            "count" : 124236,
            "type" : "SCALAR"
        }
    ],
    "bufferViews" : [
        {
            "buffer" : 0,
            "byteLength" : 278940,
            "byteOffset" : 0
        },
        {
            "buffer" : 0,
            "byteLength" : 278940,
            "byteOffset" : 278940
        },
        {
            "buffer" : 0,
            "byteLength" : 185960,
            "byteOffset" : 557880
        },
        {
            "buffer" : 0,
            "byteLength" : 248472,
            "byteOffset" : 743840
        },
        {
            "buffer" : 0,
            "byteLength" : 785684,
            "byteOffset" : 992312
        },
        {
            "buffer" : 0,
            "byteLength" : 478918,
            "byteOffset" : 1777996
        },
        {
            "buffer" : 0,
            "byteLength" : 411928,
            "byteOffset" : 2256916
        }
    ],
    "samplers" : [
        {
            "magFilter" : 9729,
            "minFilter" : 9987
        }
    ],
    "buffers" : [
        {
            "byteLength" : 2668844,
            "uri" : "data:application/octet-stream;base64,"
        }
    ]
}
