{
    "asset" : {
        "generator" : "Khronos glTF Blender I/O v1.7.33",
        "version" : "2.0"
    },
    "scene" : 0,
    "scenes" : [
        {
            "name" : "Scene",
            "nodes" : [
                0
            ]
        }
    ],
    "nodes" : [
        {
            "mesh" : 0,
            "name" : "W938_Low.001",
            "scale" : [
                0.15000000596046448,
                0.15000000596046448,
                0.15000000596046448
            ]
        }
    ],
    "materials" : [
        {
            "name" : "defaultMat",
            "normalTexture" : {
                "index" : 0
            },
            "occlusionTexture" : {
                "index" : 1
            },
            "pbrMetallicRoughness" : {
                "baseColorTexture" : {
                    "index" : 2
                },
                "metallicRoughnessTexture" : {
                    "index" : 1
                }
            }
        }
    ],
    "meshes" : [
        {
            "name" : "W938_Low",
            "primitives" : [
                {
                    "attributes" : {
                        "POSITION" : 0,
                        "NORMAL" : 1,
                        "TEXCOORD_0" : 2
                    },
                    "indices" : 3,
                    "material" : 0
                }
            ]
        }
    ],
    "textures" : [
        {
            "sampler" : 0,
            "source" : 0
        },
        {
            "sampler" : 0,
            "source" : 1
        },
        {
            "sampler" : 0,
            "source" : 2
        }
    ],
    "images" : [
        {
            "bufferView" : 4,
            "mimeType" : "image/jpeg",
            "name" : "W938_Low_defaultMat_Normal"
        },
        {
            "bufferView" : 5,
            "mimeType" : "image/jpeg",
            "name" : "W938_Low_defaultMat_OcclusionRoughnessMetallic"
        },
        {
            "bufferView" : 6,
            "mimeType" : "image/jpeg",
            "name" : "W938_Low_defaultMat_BaseColor"
        }
    ],
    "accessors" : [
        {
            "bufferView" : 0,
            "componentType" : 5126,
            "count" : 19794,
            "max" : [
                0.4384019672870636,
                1.999767780303955,
                0.14549052715301514
            ],
            "min" : [
                -0.438401997089386,
                -0.00023233890533447266,
                -0.14549052715301514
            ],
            "type" : "VEC3"
        },
        {
            "bufferView" : 1,
            "componentType" : 5126,
            "count" : 19794,
            "type" : "VEC3"
        },
        {
            "bufferView" : 2,
            "componentType" : 5126,
            "count" : 19794,
            "type" : "VEC2"
        },
        {
            "bufferView" : 3,
            "componentType" : 5123,
            "count" : 107142,
            "type" : "SCALAR"
        }
    ],
    "bufferViews" : [
        {
            "buffer" : 0,
            "byteLength" : 237528,
            "byteOffset" : 0
        },
        {
            "buffer" : 0,
            "byteLength" : 237528,
            "byteOffset" : 237528
        },
        {
            "buffer" : 0,
            "byteLength" : 158352,
            "byteOffset" : 475056
        },
        {
            "buffer" : 0,
            "byteLength" : 214284,
            "byteOffset" : 633408
        },
        {
            "buffer" : 0,
            "byteLength" : 1084324,
            "byteOffset" : 847692
        },
        {
            "buffer" : 0,
            "byteLength" : 124403,
            "byteOffset" : 1932016
        },
        {
            "buffer" : 0,
            "byteLength" : 768757,
            "byteOffset" : 2056420
        }
    ],
    "samplers" : [
        {
            "magFilter" : 9729,
            "minFilter" : 9987
        }
    ],
    "buffers" : [
        {
            "byteLength" : 2825180,
            "uri" : "data:application/octet-stream;base64,"
        }
    ]
}
